# xmcd
#
# Track frame offsets: 
#        150
#        39905
#        62935
#        82817
#        98047
#        115872
#        130265
#        142130
#        158510
#        176570
#        199182
#        218850
#        244995
#        265135
#        287455
#        308832
#
# Disc length: 4373 seconds
#
# Revision: 8
# Processed by: cddbd v1.5.2PL0 Copyright (c) Steve Scherf et al.
# Submitted via: ExactAudioCopy v0.99pb5
#
DISCID=e0111310
DTITLE=Various Artist - Missing You - CD 2
DYEAR=1991
DGENRE=Pop
TTITLE0=Genesis - Tonight, tonight, tonight
TTITLE1=Chicago - Love me tomorrow
TTITLE2=Anita Baker - You bring me joy
TTITLE3=REO Speedwagon - Keep on loving you
TTITLE4=Cliff Richard - Miss you nights
TTITLE5=Union Gap feat. Gary Puckett - Young girl
TTITLE6=Platters - Only you (and you alone)
TTITLE7=Righteous Brothers - Unchained melody
TTITLE8=Sade - Your love is king
TTITLE9=George Michael - Careless whisper
TTITLE10=Pasadenas - I really miss you so
TTITLE11=Everyday People - This kind of woman
TTITLE12=Climie Fisher - Love changes (everything)
TTITLE13=Helen Watson - When you love me, I get lazy
TTITLE14=MC Hammer - Have you seen her
TTITLE15=Tina Turner - I don't wanna lose you
EXTD=
EXTT0=
EXTT1=
EXTT2=
EXTT3=
EXTT4=
EXTT5=
EXTT6=
EXTT7=
EXTT8=
EXTT9=
EXTT10=
EXTT11=
EXTT12=
EXTT13=
EXTT14=
EXTT15=
PLAYORDER=
